<svg width="268" height="163" viewBox="0 0 268 163" fill="none" xmlns="http://www.w3.org/2000/svg">
<path d="M56.2 156.6L73.1 112.3L127.5 130.9L56.2 156.6Z" fill="#3B1E77"/>
<path opacity="0.45" d="M60.9 143.8L127.5 130.9L73.1 112.3L60.9 143.8Z" fill="#3B1E77"/>
<path d="M133.9 128.6L56.2 156.6L62 162.7L133.9 137.1L205.7 162.7L211.6 156.6L133.9 128.6Z" fill="#994EF8"/>
<path d="M211.6 156.6L194.6 112.3L140.2 130.9L211.6 156.6Z" fill="#3B1E77"/>
<path opacity="0.45" d="M206.8 143.8L140.2 130.9L194.6 112.3L206.8 143.8Z" fill="#3B1E77"/>
<path d="M133.9 137.1C136.827 137.1 139.2 134.727 139.2 131.8C139.2 128.873 136.827 126.5 133.9 126.5C130.973 126.5 128.6 128.873 128.6 131.8C128.6 134.727 130.973 137.1 133.9 137.1Z" fill="white" fill-opacity="0.5"/>
<path d="M228.3 8.10001L133.9 55.1L39.5 8.10001C35.2 13.8 0.600006 71.5 0.600006 71.5C1.00001 71.5 1.30001 71.6 1.70001 71.6C88.5 80.3 112.6 107.6 120.6 114.2C128.6 120.9 134 120.2 134 120.2C134 120.2 139.4 120.9 147.4 114.2C155.4 107.6 179.5 80.3 266.3 71.6C266.7 71.6 267 71.5 267.4 71.5C267.2 71.5 232.5 13.9 228.3 8.10001Z" fill="#F5B304"/>
<path d="M267.2 71.5C266.8 71.5 266.5 71.6 266.1 71.6C179.3 80.3 155.2 107.6 147.2 114.2C139.2 120.9 133.8 120.2 133.8 120.2C133.8 120.2 128.4 120.9 120.4 114.2C112.4 107.6 88.3 80.3 1.50001 71.6C1.10001 71.6 0.800009 71.5 0.400009 71.5C-0.299991 72.6 0.400009 73.4 0.400009 73.4C88.1 81.9 111.4 109.3 119.4 116C127.4 122.6 133.7 122.1 133.7 122.1C133.7 122.1 140 122.6 148 116C156 109.4 179.3 82 267 73.4C267.2 73.4 267.9 72.6 267.2 71.5Z" fill="#994EF8"/>
<path d="M224.7 2.6C176.4 -9 133.8 30.7 133.8 30.7C133.8 30.7 91.2 -9 42.9 2.6C42.9 2.6 29.2 23.6 10.3 59.3C10.3 59.3 105.4 70 133.8 109.9C162.2 70 257.3 59.3 257.3 59.3C238.4 23.6 224.7 2.6 224.7 2.6Z" fill="#F5EFFB"/>
<path d="M257.3 59.3C257.3 59.3 162.2 70 133.8 109.9C105.5 70 10.4 59.3 10.4 59.3C10.4 59.3 10.4 62.5 5.10001 68.8C5.10001 68.8 91.4 75 122.8 110.8C130.2 119.2 133.8 118.2 133.8 118.2C133.8 118.2 137.5 119.2 144.8 110.8C176.1 75 262.5 68.8 262.5 68.8C257.3 62.4 257.3 59.3 257.3 59.3Z" fill="#DFCBF4"/>
<path d="M219.3 6.8C219.3 6.8 183.2 -2.40001 133.8 35.9C84.5 -2.30001 48.3 6.8 48.3 6.8L23.9 54.2C98.1 59.3 133.8 96.8 133.8 96.8C133.8 96.8 169.5 59.3 243.7 54.2L219.3 6.8ZM133.9 92.3C133.9 92.3 100.5 58.1 29.7 51.4L50.2 8.8C50.2 8.8 85.7 1.9 133.9 38.1C182.1 1.9 217.6 8.8 217.6 8.8L238.1 51.4C167.3 58.1 133.9 92.3 133.9 92.3Z" fill="#863ED5"/>
<path opacity="0.2" d="M143 71.5938C156.333 61.7605 198 40 226 43" stroke="#863ED5" stroke-width="3" stroke-linecap="round"/>
<path opacity="0.2" d="M143 44C154.833 34.7346 185.6 16.5808 214 18.0884" stroke="#863ED5" stroke-width="3" stroke-linecap="round"/>
<path opacity="0.2" d="M143 58C155.833 48.0219 189.2 28.4716 220 30.0952" stroke="#863ED5" stroke-width="3" stroke-linecap="round"/>
<path opacity="0.2" d="M126 71.5938C112.667 61.7605 71 40 43 43" stroke="#863ED5" stroke-width="3" stroke-linecap="round"/>
<path opacity="0.2" d="M126 44C114.167 34.7346 83.4 16.5808 55 18.0884" stroke="#863ED5" stroke-width="3" stroke-linecap="round"/>
<path opacity="0.2" d="M126 58C113.167 48.0219 79.8 28.4716 49 30.0952" stroke="#863ED5" stroke-width="3" stroke-linecap="round"/>
<path d="M133.9 30.7C133.9 30.7 134.9 27.2 136.8 28.2C136.8 28.2 135.6 84.9 137.6 107C138.1 112.5 142.9 120 144.8 122.8H142.3L141.6 125.1C141.6 125.1 134.2 112.6 133.9 107.7C132.4 85.7 133.2 36 133.9 30.7Z" fill="#54DAF5"/>
</svg>
